<mxfile host="65bd71144e">
    <diagram id="R2lEEEUBdFMjLlhIrx00" name="Page-1">
        <mxGraphModel dx="5283" dy="3018" grid="1" gridSize="10" guides="1" tooltips="1" connect="1" arrows="1" fold="1" page="0" pageScale="1" pageWidth="850" pageHeight="1100" background="none" math="0" shadow="0" extFonts="Permanent Marker^https://fonts.googleapis.com/css?family=Permanent+Marker">
            <root>
                <mxCell id="0"/>
                <mxCell id="1" parent="0"/>
                <mxCell id="4" value="" style="edgeStyle=none;html=1;shadow=1;fontStyle=1;labelPosition=center;verticalLabelPosition=middle;align=center;verticalAlign=middle;" parent="1" source="2" target="3" edge="1">
                    <mxGeometry relative="1" as="geometry"/>
                </mxCell>
                <mxCell id="6" value="" style="edgeStyle=none;html=1;shadow=1;fontStyle=1;labelPosition=center;verticalLabelPosition=middle;align=center;verticalAlign=middle;" parent="1" source="2" target="5" edge="1">
                    <mxGeometry relative="1" as="geometry"/>
                </mxCell>
                <mxCell id="8" value="" style="edgeStyle=none;html=1;shadow=1;fontStyle=1;labelPosition=center;verticalLabelPosition=middle;align=center;verticalAlign=middle;" parent="1" source="2" target="7" edge="1">
                    <mxGeometry relative="1" as="geometry"/>
                </mxCell>
                <mxCell id="10" value="" style="edgeStyle=none;html=1;shadow=1;fontStyle=1;labelPosition=center;verticalLabelPosition=middle;align=center;verticalAlign=middle;" parent="1" source="2" target="9" edge="1">
                    <mxGeometry relative="1" as="geometry"/>
                </mxCell>
                <mxCell id="13" style="edgeStyle=none;html=1;exitX=0;exitY=1;exitDx=0;exitDy=0;shadow=1;" parent="1" source="2" target="12" edge="1">
                    <mxGeometry relative="1" as="geometry"/>
                </mxCell>
                <mxCell id="15" style="edgeStyle=none;html=1;exitX=1;exitY=0.5;exitDx=0;exitDy=0;entryX=0;entryY=0.5;entryDx=0;entryDy=0;shadow=1;" parent="1" source="2" target="14" edge="1">
                    <mxGeometry relative="1" as="geometry"/>
                </mxCell>
                <mxCell id="2" value="Admin Signup" style="whiteSpace=wrap;html=1;shadow=1;fontStyle=1;labelPosition=center;verticalLabelPosition=middle;align=center;verticalAlign=middle;" parent="1" vertex="1">
                    <mxGeometry x="-3820" y="-2030" width="120" height="60" as="geometry"/>
                </mxCell>
                <mxCell id="3" value="First Name" style="ellipse;whiteSpace=wrap;html=1;shadow=1;fontStyle=1;labelPosition=center;verticalLabelPosition=middle;align=center;verticalAlign=middle;" parent="1" vertex="1">
                    <mxGeometry x="-3650" y="-2110" width="120" height="60" as="geometry"/>
                </mxCell>
                <mxCell id="5" value="Email" style="ellipse;whiteSpace=wrap;html=1;shadow=1;fontStyle=5;labelPosition=center;verticalLabelPosition=middle;align=center;verticalAlign=middle;" parent="1" vertex="1">
                    <mxGeometry x="-3820" y="-2170" width="120" height="60" as="geometry"/>
                </mxCell>
                <mxCell id="7" value="password" style="ellipse;whiteSpace=wrap;html=1;shadow=1;fontStyle=1;labelPosition=center;verticalLabelPosition=middle;align=center;verticalAlign=middle;" parent="1" vertex="1">
                    <mxGeometry x="-4000" y="-2150" width="120" height="60" as="geometry"/>
                </mxCell>
                <mxCell id="9" value="Last&amp;nbsp; Name" style="ellipse;whiteSpace=wrap;html=1;shadow=1;fontStyle=1;labelPosition=center;verticalLabelPosition=middle;align=center;verticalAlign=middle;" parent="1" vertex="1">
                    <mxGeometry x="-4060" y="-2030" width="120" height="60" as="geometry"/>
                </mxCell>
                <mxCell id="12" value="_ID" style="ellipse;whiteSpace=wrap;html=1;shadow=1;" parent="1" vertex="1">
                    <mxGeometry x="-4000" y="-1910" width="120" height="60" as="geometry"/>
                </mxCell>
                <mxCell id="18" value="" style="edgeStyle=none;html=1;shadow=1;" parent="1" source="14" target="17" edge="1">
                    <mxGeometry relative="1" as="geometry"/>
                </mxCell>
                <mxCell id="14" value="Then" style="rhombus;whiteSpace=wrap;html=1;shadow=1;" parent="1" vertex="1">
                    <mxGeometry x="-3430" y="-2040" width="80" height="80" as="geometry"/>
                </mxCell>
                <mxCell id="20" value="" style="edgeStyle=none;html=1;shadow=1;" parent="1" source="17" target="19" edge="1">
                    <mxGeometry relative="1" as="geometry"/>
                </mxCell>
                <mxCell id="22" value="" style="edgeStyle=none;html=1;shadow=1;" parent="1" source="17" target="21" edge="1">
                    <mxGeometry relative="1" as="geometry"/>
                </mxCell>
                <mxCell id="24" value="" style="edgeStyle=none;html=1;shadow=1;" parent="1" source="17" target="23" edge="1">
                    <mxGeometry relative="1" as="geometry"/>
                </mxCell>
                <mxCell id="17" value="Signin" style="whiteSpace=wrap;html=1;shadow=1;" parent="1" vertex="1">
                    <mxGeometry x="-3240" y="-2030" width="120" height="60" as="geometry"/>
                </mxCell>
                <mxCell id="19" value="Token" style="ellipse;whiteSpace=wrap;html=1;shadow=1;" parent="1" vertex="1">
                    <mxGeometry x="-3200" y="-2160" width="120" height="60" as="geometry"/>
                </mxCell>
                <mxCell id="21" value="User" style="ellipse;whiteSpace=wrap;html=1;shadow=1;" parent="1" vertex="1">
                    <mxGeometry x="-3040" y="-2090" width="120" height="60" as="geometry"/>
                </mxCell>
                <mxCell id="26" value="" style="edgeStyle=none;html=1;shadow=1;" parent="1" source="23" target="25" edge="1">
                    <mxGeometry relative="1" as="geometry"/>
                </mxCell>
                <mxCell id="23" value="Then" style="rhombus;whiteSpace=wrap;html=1;shadow=1;" parent="1" vertex="1">
                    <mxGeometry x="-3220" y="-1900" width="80" height="80" as="geometry"/>
                </mxCell>
                <mxCell id="25" value="Upload Category" style="whiteSpace=wrap;html=1;shadow=1;" parent="1" vertex="1">
                    <mxGeometry x="-3240" y="-1730" width="120" height="60" as="geometry"/>
                </mxCell>
            </root>
        </mxGraphModel>
    </diagram>
</mxfile>